# xmcd
#
# Track frame offsets:
#	150
#	19079
#	39319
#	48971
#	78676
#	99583
#	125081
#	142025
#	162688
#	176476
#	201367
#	220080
#	244560
#	258754
#	276318
#	289572
#	317403
#
# Disc length: 4440 seconds
#
# Revision: 1
# Processed by: cddbd v1.4PL0 Copyright (c) Steve Scherf et al.
# Submitted via: EasyCDDAExtractor 5.0.6
#
DISCID=f6115611
DTITLE=Чиж and Co - The Best Of
DYEAR=2000
DGENRE=
TTITLE0=Фантом
TTITLE1=Эрогенная зона
TTITLE2=Любитель жидкости
TTITLE3=Перекрёсток
TTITLE4=Пароль
TTITLE5=Снова поезд
TTITLE6=Еду, еду
TTITLE7=О любви
TTITLE8=На поле танки грохотали
TTITLE9=Сен Симилья
TTITLE10=Вот пуля просвистела
TTITLE11=Полонез
TTITLE12=Тучи над городом встали
TTITLE13=Still Life
TTITLE14=Вечная молодость
TTITLE15=На двоих
TTITLE16=Солдат на привале
EXTD=
EXTT0=
EXTT1=
EXTT2=
EXTT3=
EXTT4=
EXTT5=
EXTT6=
EXTT7=
EXTT8=
EXTT9=
EXTT10=
EXTT11=
EXTT12=
EXTT13=
EXTT14=
EXTT15=
EXTT16=
PLAYORDER=
